<svg width="24" height="24" viewBox="0 0 24 24" xmlns="http://www.w3.org/2000/svg">
  <!-- Phren brain body - monochrome for activity bar -->
  <path d="
    M 6 12
    C 5.5 9, 7 6, 10 4.5
    C 11 4, 12.5 3.8, 14 4.2
    C 15.5 4.6, 17 5.5, 18 7
    C 19 8.5, 18.8 11, 17.5 13
    C 16.5 14.5, 15 15.5, 13 16
    C 11 16.5, 9 15.5, 7.5 14
    C 6 12.8, 5.8 12.3, 6 12
    Z
  " fill="#C5C5C5"/>
  <!-- Brain fold lines -->
  <path d="M 8 7 C 10 6, 13 6.5, 15 6 C 16 5.8, 17 6.2, 17.5 7"
        stroke="#888" stroke-width="0.8" stroke-linecap="round" fill="none" opacity="0.6"/>
  <path d="M 7 10 C 9 9, 12 9.5, 14 9 C 15.5 8.5, 17 9, 18 10"
        stroke="#888" stroke-width="0.7" stroke-linecap="round" fill="none" opacity="0.5"/>
  <!-- Eyes - diamond shape -->
  <path d="M 9.5 11 L 10.5 10 L 11.5 11 L 10.5 12 Z" fill="#333"/>
  <path d="M 12.5 11 L 13.7 9.8 L 14.9 11 L 13.7 12.2 Z" fill="#333"/>
  <!-- Smile -->
  <path d="M 10.5 13.5 L 11.5 14.5 L 12.5 13.5" stroke="#555" stroke-width="0.7" stroke-linecap="round" stroke-linejoin="round" fill="none"/>
  <!-- Legs -->
  <rect x="9.5" y="16" width="2" height="2.5" rx="0.5" fill="#C5C5C5"/>
  <rect x="12.5" y="16" width="2" height="2.5" rx="0.5" fill="#C5C5C5"/>
  <!-- Sparkle -->
  <path d="M 19.5 2 L 20 3.5 L 21.5 4 L 20 4.5 L 19.5 6 L 19 4.5 L 17.5 4 L 19 3.5 Z" fill="#C5C5C5"/>
</svg>
