<svg xmlns="http://www.w3.org/2000/svg" viewBox="0 0 64 64" width="64" height="64">
  <!-- Dark circle background -->
  <circle cx="32" cy="32" r="32" fill="#12122a"/>
  <!-- Phren pixel art on 32x32 grid (2px per cell) -->
  <g id="phren-64">
    <!-- Dark outline -->
    <g fill="#2D2255">
      <rect x="22" y="8" width="2" height="2"/>
      <rect x="24" y="8" width="2" height="2"/>
      <rect x="26" y="6" width="2" height="2"/>
      <rect x="28" y="6" width="2" height="2"/>
      <rect x="30" y="6" width="2" height="2"/>
      <rect x="32" y="6" width="2" height="2"/>
      <rect x="34" y="6" width="2" height="2"/>
      <rect x="36" y="8" width="2" height="2"/>
      <rect x="38" y="8" width="2" height="2"/>
      <!-- Left side -->
      <rect x="18" y="10" width="2" height="2"/>
      <rect x="16" y="12" width="2" height="2"/>
      <rect x="14" y="14" width="2" height="2"/>
      <rect x="12" y="16" width="2" height="2"/>
      <rect x="12" y="18" width="2" height="2"/>
      <rect x="10" y="20" width="2" height="2"/>
      <rect x="10" y="22" width="2" height="2"/>
      <rect x="10" y="24" width="2" height="2"/>
      <rect x="10" y="26" width="2" height="2"/>
      <rect x="10" y="28" width="2" height="2"/>
      <rect x="10" y="30" width="2" height="2"/>
      <rect x="12" y="32" width="2" height="2"/>
      <rect x="12" y="34" width="2" height="2"/>
      <rect x="14" y="36" width="2" height="2"/>
      <rect x="16" y="38" width="2" height="2"/>
      <!-- Right side -->
      <rect x="40" y="10" width="2" height="2"/>
      <rect x="42" y="12" width="2" height="2"/>
      <rect x="44" y="14" width="2" height="2"/>
      <rect x="46" y="16" width="2" height="2"/>
      <rect x="46" y="18" width="2" height="2"/>
      <rect x="48" y="20" width="2" height="2"/>
      <rect x="48" y="22" width="2" height="2"/>
      <rect x="48" y="24" width="2" height="2"/>
      <rect x="48" y="26" width="2" height="2"/>
      <rect x="48" y="28" width="2" height="2"/>
      <rect x="48" y="30" width="2" height="2"/>
      <rect x="46" y="32" width="2" height="2"/>
      <rect x="46" y="34" width="2" height="2"/>
      <rect x="44" y="36" width="2" height="2"/>
      <rect x="42" y="38" width="2" height="2"/>
      <!-- Bottom -->
      <rect x="18" y="38" width="2" height="2"/>
      <rect x="20" y="40" width="2" height="2"/>
      <rect x="38" y="40" width="2" height="2"/>
      <rect x="40" y="40" width="2" height="2"/>
    </g>
    <!-- Shadow purple -->
    <g fill="#5B4B8A">
      <rect x="20" y="10" width="2" height="2"/>
      <rect x="18" y="12" width="2" height="2"/>
      <rect x="16" y="14" width="2" height="2"/>
      <rect x="14" y="16" width="2" height="2"/>
      <rect x="14" y="18" width="2" height="2"/>
      <rect x="12" y="20" width="2" height="2"/>
      <rect x="12" y="22" width="2" height="2"/>
      <rect x="12" y="24" width="2" height="2"/>
      <rect x="12" y="26" width="2" height="2"/>
      <rect x="12" y="28" width="2" height="2"/>
      <rect x="12" y="30" width="2" height="2"/>
      <rect x="14" y="32" width="2" height="2"/>
      <rect x="14" y="34" width="2" height="2"/>
      <rect x="16" y="36" width="2" height="2"/>
      <rect x="18" y="36" width="2" height="2"/>
      <rect x="20" y="36" width="2" height="2"/>
      <!-- Right shadow -->
      <rect x="44" y="18" width="2" height="2"/>
      <rect x="46" y="20" width="2" height="2"/>
      <rect x="46" y="22" width="2" height="2"/>
      <rect x="46" y="24" width="2" height="2"/>
      <rect x="46" y="26" width="2" height="2"/>
      <rect x="46" y="28" width="2" height="2"/>
      <rect x="46" y="30" width="2" height="2"/>
      <rect x="44" y="32" width="2" height="2"/>
      <rect x="42" y="34" width="2" height="2"/>
      <rect x="40" y="36" width="2" height="2"/>
      <!-- Brain wrinkle shadows -->
      <rect x="24" y="12" width="2" height="2"/>
      <rect x="28" y="12" width="2" height="2"/>
      <rect x="32" y="12" width="2" height="2"/>
      <rect x="36" y="12" width="2" height="2"/>
      <rect x="22" y="16" width="2" height="2"/>
      <rect x="26" y="16" width="2" height="2"/>
      <rect x="30" y="16" width="2" height="2"/>
      <rect x="34" y="16" width="2" height="2"/>
      <rect x="38" y="16" width="2" height="2"/>
      <rect x="20" y="20" width="2" height="2"/>
      <rect x="24" y="20" width="2" height="2"/>
      <rect x="36" y="20" width="2" height="2"/>
      <rect x="40" y="20" width="2" height="2"/>
    </g>
    <!-- Base purple - main body -->
    <g fill="#7B68AE">
      <rect x="26" y="8" width="8" height="2"/>
      <rect x="22" y="10" width="16" height="2"/>
      <rect x="20" y="12" width="4" height="2"/>
      <rect x="26" y="12" width="2" height="2"/>
      <rect x="30" y="12" width="2" height="2"/>
      <rect x="34" y="12" width="2" height="2"/>
      <rect x="38" y="12" width="4" height="2"/>
      <rect x="18" y="14" width="26" height="2"/>
      <rect x="16" y="16" width="6" height="2"/>
      <rect x="24" y="16" width="2" height="2"/>
      <rect x="28" y="16" width="2" height="2"/>
      <rect x="32" y="16" width="2" height="2"/>
      <rect x="36" y="16" width="2" height="2"/>
      <rect x="40" y="16" width="6" height="2"/>
      <rect x="16" y="18" width="28" height="2"/>
      <rect x="16" y="20" width="4" height="2"/>
      <rect x="22" y="20" width="2" height="2"/>
      <rect x="26" y="20" width="10" height="2"/>
      <rect x="38" y="20" width="2" height="2"/>
      <rect x="42" y="20" width="4" height="2"/>
      <rect x="16" y="22" width="28" height="2"/>
      <rect x="16" y="24" width="28" height="2"/>
      <rect x="16" y="26" width="28" height="2"/>
      <rect x="16" y="28" width="28" height="2"/>
      <rect x="16" y="30" width="28" height="2"/>
      <rect x="18" y="32" width="24" height="2"/>
      <rect x="20" y="34" width="20" height="2"/>
      <rect x="24" y="36" width="12" height="2"/>
    </g>
    <!-- Highlight purple -->
    <g fill="#9B8DC8">
      <rect x="28" y="8" width="6" height="2"/>
      <rect x="26" y="10" width="2" height="2"/>
      <rect x="30" y="10" width="2" height="2"/>
      <rect x="34" y="10" width="4" height="2"/>
      <rect x="24" y="14" width="2" height="2"/>
      <rect x="28" y="14" width="2" height="2"/>
      <rect x="32" y="14" width="2" height="2"/>
      <rect x="36" y="14" width="2" height="2"/>
    </g>
    <!-- Eyes -->
    <g fill="#2D2255">
      <!-- Left eye diamond -->
      <rect x="20" y="24" width="2" height="2"/>
      <rect x="18" y="26" width="2" height="2"/>
      <rect x="20" y="26" width="2" height="2"/>
      <rect x="22" y="26" width="2" height="2"/>
      <rect x="20" y="28" width="2" height="2"/>
      <!-- Right eye diamond -->
      <rect x="34" y="24" width="2" height="2"/>
      <rect x="32" y="26" width="2" height="2"/>
      <rect x="34" y="26" width="2" height="2"/>
      <rect x="36" y="26" width="2" height="2"/>
      <rect x="34" y="28" width="2" height="2"/>
    </g>
    <!-- Eye shine -->
    <g fill="#FFFFFF">
      <rect x="18" y="24" width="2" height="2"/>
      <rect x="32" y="24" width="2" height="2"/>
    </g>
    <!-- Smile -->
    <g fill="#3D3270">
      <rect x="26" y="30" width="2" height="2"/>
      <rect x="28" y="32" width="2" height="2"/>
      <rect x="30" y="32" width="2" height="2"/>
      <rect x="32" y="30" width="2" height="2"/>
    </g>
    <!-- Legs -->
    <g fill="#3D3270">
      <rect x="22" y="38" width="4" height="2"/>
      <rect x="22" y="40" width="4" height="2"/>
      <rect x="20" y="42" width="6" height="2"/>
      <rect x="34" y="38" width="4" height="2"/>
      <rect x="34" y="40" width="4" height="2"/>
      <rect x="34" y="42" width="6" height="2"/>
    </g>
    <!-- Shadow under feet -->
    <g fill="#9B8DC8" opacity="0.3">
      <rect x="18" y="44" width="12" height="2"/>
      <rect x="32" y="44" width="12" height="2"/>
    </g>
    <!-- Sparkle -->
    <g fill="#00E5FF">
      <rect x="44" y="4" width="2" height="2"/>
      <rect x="42" y="6" width="2" height="2"/>
      <rect x="44" y="6" width="2" height="2"/>
      <rect x="46" y="6" width="2" height="2"/>
      <rect x="44" y="8" width="2" height="2"/>
    </g>
    <g fill="#4DFFFF">
      <rect x="44" y="2" width="2" height="2"/>
      <rect x="40" y="6" width="2" height="2"/>
      <rect x="48" y="6" width="2" height="2"/>
      <rect x="44" y="10" width="2" height="2"/>
    </g>
  </g>
</svg>