<svg xmlns="http://www.w3.org/2000/svg" viewBox="0 0 20 20" width="20" height="20">
  <g fill="rgb(150,145,247)">
    <rect x="8.0" y="6.0" width="2.0" height="2.0"/>
  </g>
  <g fill="rgb(155,143,249)">
    <rect x="10.0" y="6.0" width="2.0" height="2.0"/>
  </g>
  <g fill="rgb(108,96,248)">
    <rect x="12.0" y="6.0" width="2.0" height="2.0"/>
  </g>
  <g fill="rgb(152,136,251)">
    <rect x="6.0" y="8.0" width="2.0" height="2.0"/>
  </g>
  <g fill="rgb(155,145,248)">
    <rect x="8.0" y="8.0" width="2.0" height="2.0"/>
  </g>
  <g fill="rgb(159,141,251)">
    <rect x="10.0" y="8.0" width="2.0" height="2.0"/>
  </g>
  <g fill="rgb(154,137,249)">
    <rect x="12.0" y="8.0" width="2.0" height="2.0"/>
  </g>
  <g fill="rgb(113,97,248)">
    <rect x="14.0" y="8.0" width="2.0" height="2.0"/>
  </g>
  <g fill="rgb(20,31,98)">
    <rect x="6.0" y="10.0" width="2.0" height="2.0"/>
  </g>
  <g fill="rgb(146,125,250)">
    <rect x="8.0" y="10.0" width="2.0" height="2.0"/>
  </g>
  <g fill="rgb(153,141,250)">
    <rect x="10.0" y="10.0" width="2.0" height="2.0"/>
  </g>
  <g fill="rgb(75,62,214)">
    <rect x="12.0" y="10.0" width="2.0" height="2.0"/>
  </g>
  <g fill="rgb(93,81,241)">
    <rect x="14.0" y="10.0" width="2.0" height="2.0"/>
  </g>
  <g fill="rgb(48,39,181)">
    <rect x="6.0" y="12.0" width="2.0" height="2.0"/>
  </g>
  <g fill="rgb(100,86,247)">
    <rect x="8.0" y="12.0" width="2.0" height="2.0"/>
  </g>
  <g fill="rgb(79,72,219)">
    <rect x="10.0" y="12.0" width="2.0" height="2.0"/>
  </g>
  <g fill="rgb(82,63,229)">
    <rect x="12.0" y="12.0" width="2.0" height="2.0"/>
  </g>
  <g fill="rgb(69,51,214)">
    <rect x="8.0" y="14.0" width="2.0" height="2.0"/>
  </g>
  <g fill="rgb(95,69,245)">
    <rect x="10.0" y="14.0" width="2.0" height="2.0"/>
  </g>
</svg>