<svg xmlns="http://www.w3.org/2000/svg" viewBox="0 0 128 128" width="128" height="128">
  <style>@keyframes phren-bob{0%,100%{transform:translateY(0)}50%{transform:translateY(-2px)}}#phren-body{animation:phren-bob 3s ease-in-out infinite}</style>
  <g id="phren-body">
  <g fill="rgb(40,211,242)">
    <rect x="85.3" y="26.7" width="5.3" height="5.3"/>
  </g>
  <g fill="rgb(27,210,241)">
    <rect x="96.0" y="26.7" width="5.3" height="5.3"/>
  </g>
  <g fill="rgb(40,41,142)">
    <rect x="53.3" y="32.0" width="5.3" height="5.3"/>
  </g>
  <g fill="rgb(41,43,144)">
    <rect x="58.7" y="32.0" width="5.3" height="5.3"/>
    <rect x="74.7" y="32.0" width="5.3" height="5.3"/>
  </g>
  <g fill="rgb(43,44,147)">
    <rect x="69.3" y="32.0" width="5.3" height="5.3"/>
  </g>
  <g fill="rgb(38,39,142)">
    <rect x="42.7" y="37.3" width="5.3" height="5.3"/>
  </g>
  <g fill="rgb(153,140,248)">
    <rect x="48.0" y="37.3" width="5.3" height="5.3"/>
  </g>
  <g fill="rgb(152,146,247)">
    <rect x="53.3" y="37.3" width="5.3" height="5.3"/>
  </g>
  <g fill="rgb(93,67,243)">
    <rect x="58.7" y="37.3" width="5.3" height="5.3"/>
  </g>
  <g fill="rgb(157,147,250)">
    <rect x="64.0" y="37.3" width="5.3" height="5.3"/>
  </g>
  <g fill="rgb(156,146,249)">
    <rect x="69.3" y="37.3" width="5.3" height="5.3"/>
  </g>
  <g fill="rgb(145,147,247)">
    <rect x="74.7" y="37.3" width="5.3" height="5.3"/>
  </g>
  <g fill="rgb(155,146,248)">
    <rect x="80.0" y="37.3" width="5.3" height="5.3"/>
  </g>
  <g fill="rgb(41,40,141)">
    <rect x="85.3" y="37.3" width="5.3" height="5.3"/>
  </g>
  <g fill="rgb(150,132,250)">
    <rect x="42.7" y="42.7" width="5.3" height="5.3"/>
  </g>
  <g fill="rgb(154,143,250)">
    <rect x="48.0" y="42.7" width="5.3" height="5.3"/>
  </g>
  <g fill="rgb(104,75,249)">
    <rect x="53.3" y="42.7" width="5.3" height="5.3"/>
  </g>
  <g fill="rgb(156,142,251)">
    <rect x="58.7" y="42.7" width="5.3" height="5.3"/>
  </g>
  <g fill="rgb(156,149,248)">
    <rect x="64.0" y="42.7" width="5.3" height="5.3"/>
  </g>
  <g fill="rgb(157,150,248)">
    <rect x="69.3" y="42.7" width="5.3" height="5.3"/>
  </g>
  <g fill="rgb(151,130,250)">
    <rect x="74.7" y="42.7" width="5.3" height="5.3"/>
  </g>
  <g fill="rgb(149,145,247)">
    <rect x="80.0" y="42.7" width="5.3" height="5.3"/>
  </g>
  <g fill="rgb(155,143,248)">
    <rect x="85.3" y="42.7" width="5.3" height="5.3"/>
  </g>
  <g fill="rgb(41,41,146)">
    <rect x="90.7" y="42.7" width="5.3" height="5.3"/>
  </g>
  <g fill="rgb(39,39,132)">
    <rect x="37.3" y="48.0" width="5.3" height="5.3"/>
  </g>
  <g fill="rgb(151,133,250)">
    <rect x="42.7" y="48.0" width="5.3" height="5.3"/>
    <rect x="58.7" y="58.7" width="5.3" height="5.3"/>
  </g>
  <g fill="rgb(148,129,251)">
    <rect x="48.0" y="48.0" width="5.3" height="5.3"/>
  </g>
  <g fill="rgb(156,145,248)">
    <rect x="53.3" y="48.0" width="5.3" height="5.3"/>
  </g>
  <g fill="rgb(92,68,236)">
    <rect x="58.7" y="48.0" width="5.3" height="5.3"/>
  </g>
  <g fill="rgb(85,70,220)">
    <rect x="64.0" y="48.0" width="5.3" height="5.3"/>
  </g>
  <g fill="rgb(157,151,248)">
    <rect x="69.3" y="48.0" width="5.3" height="5.3"/>
  </g>
  <g fill="rgb(86,61,235)">
    <rect x="74.7" y="48.0" width="5.3" height="5.3"/>
  </g>
  <g fill="rgb(105,83,245)">
    <rect x="80.0" y="48.0" width="5.3" height="5.3"/>
  </g>
  <g fill="rgb(191,189,251)">
    <rect x="85.3" y="48.0" width="5.3" height="5.3"/>
  </g>
  <g fill="rgb(153,135,250)">
    <rect x="90.7" y="48.0" width="5.3" height="5.3"/>
  </g>
  <g fill="rgb(71,68,183)">
    <rect x="96.0" y="48.0" width="5.3" height="5.3"/>
  </g>
  <g fill="rgb(12,31,109)">
    <rect x="32.0" y="53.3" width="5.3" height="5.3"/>
  </g>
  <g fill="rgb(82,67,225)">
    <rect x="37.3" y="53.3" width="5.3" height="5.3"/>
  </g>
  <g fill="rgb(143,122,252)">
    <rect x="42.7" y="53.3" width="5.3" height="5.3"/>
  </g>
  <g fill="rgb(94,67,244)">
    <rect x="48.0" y="53.3" width="5.3" height="5.3"/>
  </g>
  <g fill="rgb(152,144,249)">
    <rect x="53.3" y="53.3" width="5.3" height="5.3"/>
  </g>
  <g fill="rgb(154,143,248)">
    <rect x="58.7" y="53.3" width="5.3" height="5.3"/>
  </g>
  <g fill="rgb(157,153,248)">
    <rect x="64.0" y="53.3" width="5.3" height="5.3"/>
  </g>
  <g fill="rgb(84,61,230)">
    <rect x="69.3" y="53.3" width="5.3" height="5.3"/>
  </g>
  <g fill="rgb(152,139,250)">
    <rect x="74.7" y="53.3" width="5.3" height="5.3"/>
  </g>
  <g fill="rgb(95,71,239)">
    <rect x="80.0" y="53.3" width="5.3" height="5.3"/>
  </g>
  <g fill="rgb(92,68,237)">
    <rect x="85.3" y="53.3" width="5.3" height="5.3"/>
  </g>
  <g fill="rgb(151,139,250)">
    <rect x="90.7" y="53.3" width="5.3" height="5.3"/>
  </g>
  <g fill="rgb(67,61,181)">
    <rect x="96.0" y="53.3" width="5.3" height="5.3"/>
  </g>
  <g fill="rgb(148,132,250)">
    <rect x="32.0" y="58.7" width="5.3" height="5.3"/>
  </g>
  <g fill="rgb(144,126,251)">
    <rect x="37.3" y="58.7" width="5.3" height="5.3"/>
  </g>
  <g fill="rgb(156,143,251)">
    <rect x="42.7" y="58.7" width="5.3" height="5.3"/>
  </g>
  <g fill="rgb(149,132,251)">
    <rect x="48.0" y="58.7" width="5.3" height="5.3"/>
  </g>
  <g fill="rgb(150,132,251)">
    <rect x="53.3" y="58.7" width="5.3" height="5.3"/>
  </g>
  <g fill="rgb(152,134,250)">
    <rect x="64.0" y="58.7" width="5.3" height="5.3"/>
  </g>
  <g fill="rgb(152,139,247)">
    <rect x="69.3" y="58.7" width="5.3" height="5.3"/>
  </g>
  <g fill="rgb(106,93,246)">
    <rect x="74.7" y="58.7" width="5.3" height="5.3"/>
  </g>
  <g fill="rgb(155,141,250)">
    <rect x="80.0" y="58.7" width="5.3" height="5.3"/>
  </g>
  <g fill="rgb(158,141,248)">
    <rect x="85.3" y="58.7" width="5.3" height="5.3"/>
  </g>
  <g fill="rgb(116,101,251)">
    <rect x="90.7" y="58.7" width="5.3" height="5.3"/>
  </g>
  <g fill="rgb(36,41,131)">
    <rect x="96.0" y="58.7" width="5.3" height="5.3"/>
  </g>
  <g fill="rgb(141,122,250)">
    <rect x="32.0" y="64.0" width="5.3" height="5.3"/>
  </g>
  <g fill="rgb(21,32,101)">
    <rect x="37.3" y="64.0" width="5.3" height="5.3"/>
  </g>
  <g fill="rgb(146,126,251)">
    <rect x="42.7" y="64.0" width="5.3" height="5.3"/>
    <rect x="53.3" y="74.7" width="5.3" height="5.3"/>
  </g>
  <g fill="rgb(146,128,250)">
    <rect x="48.0" y="64.0" width="5.3" height="5.3"/>
    <rect x="58.7" y="74.7" width="5.3" height="5.3"/>
  </g>
  <g fill="rgb(158,149,250)">
    <rect x="53.3" y="64.0" width="5.3" height="5.3"/>
  </g>
  <g fill="rgb(22,31,104)">
    <rect x="58.7" y="64.0" width="5.3" height="5.3"/>
  </g>
  <g fill="rgb(152,137,250)">
    <rect x="64.0" y="64.0" width="5.3" height="5.3"/>
  </g>
  <g fill="rgb(150,142,249)">
    <rect x="69.3" y="64.0" width="5.3" height="5.3"/>
  </g>
  <g fill="rgb(152,138,250)">
    <rect x="74.7" y="64.0" width="5.3" height="5.3"/>
  </g>
  <g fill="rgb(154,140,251)">
    <rect x="80.0" y="64.0" width="5.3" height="5.3"/>
  </g>
  <g fill="rgb(116,104,252)">
    <rect x="85.3" y="64.0" width="5.3" height="5.3"/>
  </g>
  <g fill="rgb(127,111,251)">
    <rect x="90.7" y="64.0" width="5.3" height="5.3"/>
  </g>
  <g fill="rgb(92,85,242)">
    <rect x="96.0" y="64.0" width="5.3" height="5.3"/>
  </g>
  <g fill="rgb(146,128,248)">
    <rect x="32.0" y="69.3" width="5.3" height="5.3"/>
  </g>
  <g fill="rgb(154,132,250)">
    <rect x="37.3" y="69.3" width="5.3" height="5.3"/>
  </g>
  <g fill="rgb(145,123,251)">
    <rect x="42.7" y="69.3" width="5.3" height="5.3"/>
  </g>
  <g fill="rgb(145,125,250)">
    <rect x="48.0" y="69.3" width="5.3" height="5.3"/>
    <rect x="42.7" y="74.7" width="5.3" height="5.3"/>
  </g>
  <g fill="rgb(146,123,248)">
    <rect x="53.3" y="69.3" width="5.3" height="5.3"/>
  </g>
  <g fill="rgb(152,132,248)">
    <rect x="58.7" y="69.3" width="5.3" height="5.3"/>
  </g>
  <g fill="rgb(151,133,251)">
    <rect x="64.0" y="69.3" width="5.3" height="5.3"/>
  </g>
  <g fill="rgb(135,121,250)">
    <rect x="69.3" y="69.3" width="5.3" height="5.3"/>
  </g>
  <g fill="rgb(119,99,247)">
    <rect x="74.7" y="69.3" width="5.3" height="5.3"/>
  </g>
  <g fill="rgb(108,93,249)">
    <rect x="80.0" y="69.3" width="5.3" height="5.3"/>
  </g>
  <g fill="rgb(117,100,251)">
    <rect x="85.3" y="69.3" width="5.3" height="5.3"/>
  </g>
  <g fill="rgb(125,110,250)">
    <rect x="90.7" y="69.3" width="5.3" height="5.3"/>
  </g>
  <g fill="rgb(93,81,242)">
    <rect x="96.0" y="69.3" width="5.3" height="5.3"/>
  </g>
  <g fill="rgb(10,28,98)">
    <rect x="32.0" y="74.7" width="5.3" height="5.3"/>
  </g>
  <g fill="rgb(147,128,251)">
    <rect x="37.3" y="74.7" width="5.3" height="5.3"/>
  </g>
  <g fill="rgb(48,39,174)">
    <rect x="48.0" y="74.7" width="5.3" height="5.3"/>
  </g>
  <g fill="rgb(111,94,250)">
    <rect x="64.0" y="74.7" width="5.3" height="5.3"/>
  </g>
  <g fill="rgb(122,109,250)">
    <rect x="69.3" y="74.7" width="5.3" height="5.3"/>
  </g>
  <g fill="rgb(120,107,251)">
    <rect x="74.7" y="74.7" width="5.3" height="5.3"/>
  </g>
  <g fill="rgb(121,100,250)">
    <rect x="80.0" y="74.7" width="5.3" height="5.3"/>
  </g>
  <g fill="rgb(92,66,240)">
    <rect x="85.3" y="74.7" width="5.3" height="5.3"/>
  </g>
  <g fill="rgb(117,92,249)">
    <rect x="90.7" y="74.7" width="5.3" height="5.3"/>
  </g>
  <g fill="rgb(7,37,110)">
    <rect x="96.0" y="74.7" width="5.3" height="5.3"/>
  </g>
  <g fill="rgb(77,59,222)">
    <rect x="37.3" y="80.0" width="5.3" height="5.3"/>
  </g>
  <g fill="rgb(100,82,243)">
    <rect x="42.7" y="80.0" width="5.3" height="5.3"/>
  </g>
  <g fill="rgb(136,120,250)">
    <rect x="48.0" y="80.0" width="5.3" height="5.3"/>
  </g>
  <g fill="rgb(102,86,245)">
    <rect x="53.3" y="80.0" width="5.3" height="5.3"/>
  </g>
  <g fill="rgb(103,86,245)">
    <rect x="58.7" y="80.0" width="5.3" height="5.3"/>
  </g>
  <g fill="rgb(116,102,249)">
    <rect x="64.0" y="80.0" width="5.3" height="5.3"/>
  </g>
  <g fill="rgb(114,103,247)">
    <rect x="69.3" y="80.0" width="5.3" height="5.3"/>
  </g>
  <g fill="rgb(86,74,229)">
    <rect x="74.7" y="80.0" width="5.3" height="5.3"/>
  </g>
  <g fill="rgb(106,93,244)">
    <rect x="80.0" y="80.0" width="5.3" height="5.3"/>
  </g>
  <g fill="rgb(36,25,138)">
    <rect x="85.3" y="80.0" width="5.3" height="5.3"/>
  </g>
  <g fill="rgb(83,73,231)">
    <rect x="90.7" y="80.0" width="5.3" height="5.3"/>
  </g>
  <g fill="rgb(18,22,101)">
    <rect x="42.7" y="85.3" width="5.3" height="5.3"/>
  </g>
  <g fill="rgb(19,24,101)">
    <rect x="48.0" y="85.3" width="5.3" height="5.3"/>
  </g>
  <g fill="rgb(66,51,207)">
    <rect x="53.3" y="85.3" width="5.3" height="5.3"/>
  </g>
  <g fill="rgb(95,83,244)">
    <rect x="58.7" y="85.3" width="5.3" height="5.3"/>
  </g>
  <g fill="rgb(72,59,210)">
    <rect x="64.0" y="85.3" width="5.3" height="5.3"/>
  </g>
  <g fill="rgb(115,96,250)">
    <rect x="69.3" y="85.3" width="5.3" height="5.3"/>
  </g>
  <g fill="rgb(117,104,249)">
    <rect x="74.7" y="85.3" width="5.3" height="5.3"/>
  </g>
  <g fill="rgb(119,104,249)">
    <rect x="80.0" y="85.3" width="5.3" height="5.3"/>
  </g>
  <g fill="rgb(23,21,110)">
    <rect x="85.3" y="85.3" width="5.3" height="5.3"/>
  </g>
  <g fill="rgb(69,51,218)">
    <rect x="53.3" y="90.7" width="5.3" height="5.3"/>
  </g>
  <g fill="rgb(26,24,106)">
    <rect x="58.7" y="90.7" width="5.3" height="5.3"/>
  </g>
  <g fill="rgb(58,46,198)">
    <rect x="69.3" y="90.7" width="5.3" height="5.3"/>
  </g>
  <g fill="rgb(20,31,99)">
    <rect x="74.7" y="90.7" width="5.3" height="5.3"/>
  </g>
  <g fill="rgb(26,29,111)">
    <rect x="80.0" y="90.7" width="5.3" height="5.3"/>
  </g>
  <g fill="rgb(24,29,112)">
    <rect x="48.0" y="96.0" width="5.3" height="5.3"/>
  </g>
  <g fill="rgb(105,91,248)">
    <rect x="53.3" y="96.0" width="5.3" height="5.3"/>
  </g>
  <g fill="rgb(9,30,102)">
    <rect x="58.7" y="96.0" width="5.3" height="5.3"/>
  </g>
  <g fill="rgb(12,31,104)">
    <rect x="64.0" y="96.0" width="5.3" height="5.3"/>
  </g>
  <g fill="rgb(112,102,250)">
    <rect x="69.3" y="96.0" width="5.3" height="5.3"/>
  </g>
  <g fill="rgb(15,41,120)">
    <rect x="74.7" y="96.0" width="5.3" height="5.3"/>
  </g>
  <g fill="rgb(160,169,250)">
    <rect x="80.0" y="96.0" width="5.3" height="5.3"/>
  </g>
  <g fill="rgb(156,157,248)">
    <rect x="48.0" y="101.3" width="5.3" height="5.3"/>
  </g>
  <g fill="rgb(155,157,248)">
    <rect x="53.3" y="101.3" width="5.3" height="5.3"/>
  </g>
  <g fill="rgb(157,158,248)">
    <rect x="58.7" y="101.3" width="5.3" height="5.3"/>
  </g>
  <g fill="rgb(158,161,248)">
    <rect x="64.0" y="101.3" width="5.3" height="5.3"/>
  </g>
  <g fill="rgb(158,160,248)">
    <rect x="69.3" y="101.3" width="5.3" height="5.3"/>
  </g>
  <g fill="rgb(158,162,248)">
    <rect x="74.7" y="101.3" width="5.3" height="5.3"/>
  </g>
  <g fill="rgb(158,163,247)">
    <rect x="80.0" y="101.3" width="5.3" height="5.3"/>
  </g>
  </g>
</svg>