<svg xmlns="http://www.w3.org/2000/svg" viewBox="0 0 64 64" width="64" height="64">
  <circle cx="32" cy="32" r="32" fill="#12122a"/>
  <g fill="rgb(103,226,248)">
    <rect x="44.0" y="12.0" width="4.0" height="4.0"/>
  </g>
  <g fill="rgb(138,127,236)">
    <rect x="20.0" y="16.0" width="4.0" height="4.0"/>
  </g>
  <g fill="rgb(150,144,247)">
    <rect x="24.0" y="16.0" width="4.0" height="4.0"/>
  </g>
  <g fill="rgb(102,74,242)">
    <rect x="28.0" y="16.0" width="4.0" height="4.0"/>
  </g>
  <g fill="rgb(168,165,249)">
    <rect x="32.0" y="16.0" width="4.0" height="4.0"/>
  </g>
  <g fill="rgb(144,147,247)">
    <rect x="36.0" y="16.0" width="4.0" height="4.0"/>
  </g>
  <g fill="rgb(119,108,251)">
    <rect x="40.0" y="16.0" width="4.0" height="4.0"/>
  </g>
  <g fill="rgb(102,80,247)">
    <rect x="20.0" y="20.0" width="4.0" height="4.0"/>
  </g>
  <g fill="rgb(105,77,249)">
    <rect x="24.0" y="20.0" width="4.0" height="4.0"/>
  </g>
  <g fill="rgb(197,195,252)">
    <rect x="28.0" y="20.0" width="4.0" height="4.0"/>
  </g>
  <g fill="rgb(154,148,247)">
    <rect x="32.0" y="20.0" width="4.0" height="4.0"/>
  </g>
  <g fill="rgb(152,131,250)">
    <rect x="36.0" y="20.0" width="4.0" height="4.0"/>
  </g>
  <g fill="rgb(151,145,249)">
    <rect x="40.0" y="20.0" width="4.0" height="4.0"/>
  </g>
  <g fill="rgb(37,37,143)">
    <rect x="44.0" y="20.0" width="4.0" height="4.0"/>
  </g>
  <g fill="rgb(84,63,227)">
    <rect x="16.0" y="24.0" width="4.0" height="4.0"/>
  </g>
  <g fill="rgb(153,132,251)">
    <rect x="20.0" y="24.0" width="4.0" height="4.0"/>
  </g>
  <g fill="rgb(154,143,249)">
    <rect x="24.0" y="24.0" width="4.0" height="4.0"/>
  </g>
  <g fill="rgb(159,147,249)">
    <rect x="28.0" y="24.0" width="4.0" height="4.0"/>
  </g>
  <g fill="rgb(93,76,236)">
    <rect x="32.0" y="24.0" width="4.0" height="4.0"/>
  </g>
  <g fill="rgb(156,134,251)">
    <rect x="36.0" y="24.0" width="4.0" height="4.0"/>
  </g>
  <g fill="rgb(154,137,248)">
    <rect x="40.0" y="24.0" width="4.0" height="4.0"/>
  </g>
  <g fill="rgb(149,130,251)">
    <rect x="44.0" y="24.0" width="4.0" height="4.0"/>
  </g>
  <g fill="rgb(34,37,124)">
    <rect x="12.0" y="28.0" width="4.0" height="4.0"/>
  </g>
  <g fill="rgb(144,124,251)">
    <rect x="16.0" y="28.0" width="4.0" height="4.0"/>
  </g>
  <g fill="rgb(150,132,250)">
    <rect x="20.0" y="28.0" width="4.0" height="4.0"/>
  </g>
  <g fill="rgb(149,130,250)">
    <rect x="24.0" y="28.0" width="4.0" height="4.0"/>
  </g>
  <g fill="rgb(153,137,252)">
    <rect x="28.0" y="28.0" width="4.0" height="4.0"/>
  </g>
  <g fill="rgb(154,136,250)">
    <rect x="32.0" y="28.0" width="4.0" height="4.0"/>
  </g>
  <g fill="rgb(154,138,250)">
    <rect x="36.0" y="28.0" width="4.0" height="4.0"/>
  </g>
  <g fill="rgb(157,141,249)">
    <rect x="40.0" y="28.0" width="4.0" height="4.0"/>
  </g>
  <g fill="rgb(82,62,230)">
    <rect x="44.0" y="28.0" width="4.0" height="4.0"/>
  </g>
  <g fill="rgb(29,34,113)">
    <rect x="12.0" y="32.0" width="4.0" height="4.0"/>
  </g>
  <g fill="rgb(21,32,104)">
    <rect x="16.0" y="32.0" width="4.0" height="4.0"/>
  </g>
  <g fill="rgb(146,127,251)">
    <rect x="20.0" y="32.0" width="4.0" height="4.0"/>
  </g>
  <g fill="rgb(157,145,248)">
    <rect x="24.0" y="32.0" width="4.0" height="4.0"/>
  </g>
  <g fill="rgb(20,31,101)">
    <rect x="28.0" y="32.0" width="4.0" height="4.0"/>
  </g>
  <g fill="rgb(152,138,249)">
    <rect x="32.0" y="32.0" width="4.0" height="4.0"/>
  </g>
  <g fill="rgb(154,141,248)">
    <rect x="36.0" y="32.0" width="4.0" height="4.0"/>
  </g>
  <g fill="rgb(78,62,218)">
    <rect x="40.0" y="32.0" width="4.0" height="4.0"/>
  </g>
  <g fill="rgb(124,107,250)">
    <rect x="44.0" y="32.0" width="4.0" height="4.0"/>
  </g>
  <g fill="rgb(38,41,148)">
    <rect x="48.0" y="32.0" width="4.0" height="4.0"/>
  </g>
  <g fill="rgb(147,129,252)">
    <rect x="16.0" y="36.0" width="4.0" height="4.0"/>
  </g>
  <g fill="rgb(147,125,251)">
    <rect x="20.0" y="36.0" width="4.0" height="4.0"/>
  </g>
  <g fill="rgb(147,127,251)">
    <rect x="24.0" y="36.0" width="4.0" height="4.0"/>
  </g>
  <g fill="rgb(149,131,251)">
    <rect x="28.0" y="36.0" width="4.0" height="4.0"/>
  </g>
  <g fill="rgb(120,104,251)">
    <rect x="32.0" y="36.0" width="4.0" height="4.0"/>
  </g>
  <g fill="rgb(121,109,252)">
    <rect x="36.0" y="36.0" width="4.0" height="4.0"/>
  </g>
  <g fill="rgb(109,90,247)">
    <rect x="40.0" y="36.0" width="4.0" height="4.0"/>
  </g>
  <g fill="rgb(113,92,249)">
    <rect x="44.0" y="36.0" width="4.0" height="4.0"/>
  </g>
  <g fill="rgb(97,88,247)">
    <rect x="20.0" y="40.0" width="4.0" height="4.0"/>
  </g>
  <g fill="rgb(96,85,243)">
    <rect x="24.0" y="40.0" width="4.0" height="4.0"/>
  </g>
  <g fill="rgb(71,58,216)">
    <rect x="28.0" y="40.0" width="4.0" height="4.0"/>
  </g>
  <g fill="rgb(90,71,238)">
    <rect x="32.0" y="40.0" width="4.0" height="4.0"/>
  </g>
  <g fill="rgb(115,103,249)">
    <rect x="36.0" y="40.0" width="4.0" height="4.0"/>
  </g>
  <g fill="rgb(80,61,228)">
    <rect x="40.0" y="40.0" width="4.0" height="4.0"/>
  </g>
  <g fill="rgb(16,18,94)">
    <rect x="44.0" y="40.0" width="4.0" height="4.0"/>
  </g>
  <g fill="rgb(69,52,218)">
    <rect x="24.0" y="44.0" width="4.0" height="4.0"/>
  </g>
  <g fill="rgb(17,28,102)">
    <rect x="32.0" y="44.0" width="4.0" height="4.0"/>
  </g>
  <g fill="rgb(20,31,99)">
    <rect x="36.0" y="44.0" width="4.0" height="4.0"/>
  </g>
  <g fill="rgb(160,163,251)">
    <rect x="20.0" y="48.0" width="4.0" height="4.0"/>
  </g>
  <g fill="rgb(34,34,140)">
    <rect x="24.0" y="48.0" width="4.0" height="4.0"/>
  </g>
  <g fill="rgb(159,159,250)">
    <rect x="28.0" y="48.0" width="4.0" height="4.0"/>
  </g>
  <g fill="rgb(26,36,133)">
    <rect x="32.0" y="48.0" width="4.0" height="4.0"/>
  </g>
  <g fill="rgb(26,41,132)">
    <rect x="36.0" y="48.0" width="4.0" height="4.0"/>
  </g>
  <g fill="rgb(159,165,249)">
    <rect x="40.0" y="48.0" width="4.0" height="4.0"/>
  </g>
</svg>