<svg xmlns="http://www.w3.org/2000/svg" viewBox="0 0 256 256" width="256" height="256">
  <style>@keyframes phren-bob{0%,100%{transform:translateY(0)}50%{transform:translateY(-2px)}}#phren-body{animation:phren-bob 3s ease-in-out infinite}</style>
  <g id="phren-body">
  <g fill="rgb(37,210,242)">
    <rect x="184.0" y="40.0" width="8.0" height="8.0"/>
  </g>
  <g fill="rgb(40,212,242)">
    <rect x="168.0" y="48.0" width="8.0" height="8.0"/>
  </g>
  <g fill="rgb(40,213,242)">
    <rect x="192.0" y="48.0" width="8.0" height="8.0"/>
  </g>
  <g fill="rgb(39,214,244)">
    <rect x="176.0" y="56.0" width="8.0" height="8.0"/>
  </g>
  <g fill="rgb(39,42,138)">
    <rect x="88.0" y="64.0" width="8.0" height="8.0"/>
  </g>
  <g fill="rgb(157,138,250)">
    <rect x="96.0" y="64.0" width="8.0" height="8.0"/>
  </g>
  <g fill="rgb(157,140,249)">
    <rect x="104.0" y="64.0" width="8.0" height="8.0"/>
  </g>
  <g fill="rgb(149,136,249)">
    <rect x="112.0" y="64.0" width="8.0" height="8.0"/>
  </g>
  <g fill="rgb(43,46,151)">
    <rect x="120.0" y="64.0" width="8.0" height="8.0"/>
  </g>
  <g fill="rgb(43,45,141)">
    <rect x="128.0" y="64.0" width="8.0" height="8.0"/>
  </g>
  <g fill="rgb(149,149,246)">
    <rect x="136.0" y="64.0" width="8.0" height="8.0"/>
  </g>
  <g fill="rgb(153,149,248)">
    <rect x="144.0" y="64.0" width="8.0" height="8.0"/>
    <rect x="152.0" y="64.0" width="8.0" height="8.0"/>
  </g>
  <g fill="rgb(45,44,149)">
    <rect x="160.0" y="64.0" width="8.0" height="8.0"/>
  </g>
  <g fill="rgb(38,207,240)">
    <rect x="184.0" y="64.0" width="8.0" height="8.0"/>
  </g>
  <g fill="rgb(38,38,139)">
    <rect x="80.0" y="72.0" width="8.0" height="8.0"/>
  </g>
  <g fill="rgb(152,140,248)">
    <rect x="88.0" y="72.0" width="8.0" height="8.0"/>
    <rect x="112.0" y="104.0" width="8.0" height="8.0"/>
  </g>
  <g fill="rgb(152,137,248)">
    <rect x="96.0" y="72.0" width="8.0" height="8.0"/>
  </g>
  <g fill="rgb(154,142,248)">
    <rect x="104.0" y="72.0" width="8.0" height="8.0"/>
  </g>
  <g fill="rgb(91,64,241)">
    <rect x="112.0" y="72.0" width="8.0" height="8.0"/>
  </g>
  <g fill="rgb(154,146,247)">
    <rect x="120.0" y="72.0" width="8.0" height="8.0"/>
  </g>
  <g fill="rgb(154,148,250)">
    <rect x="128.0" y="72.0" width="8.0" height="8.0"/>
  </g>
  <g fill="rgb(155,144,249)">
    <rect x="136.0" y="72.0" width="8.0" height="8.0"/>
  </g>
  <g fill="rgb(201,203,252)">
    <rect x="144.0" y="72.0" width="8.0" height="8.0"/>
  </g>
  <g fill="rgb(140,151,245)">
    <rect x="152.0" y="72.0" width="8.0" height="8.0"/>
  </g>
  <g fill="rgb(156,149,249)">
    <rect x="160.0" y="72.0" width="8.0" height="8.0"/>
  </g>
  <g fill="rgb(42,40,142)">
    <rect x="168.0" y="72.0" width="8.0" height="8.0"/>
  </g>
  <g fill="rgb(41,44,145)">
    <rect x="72.0" y="80.0" width="8.0" height="8.0"/>
  </g>
  <g fill="rgb(150,132,250)">
    <rect x="80.0" y="80.0" width="8.0" height="8.0"/>
    <rect x="96.0" y="112.0" width="8.0" height="8.0"/>
  </g>
  <g fill="rgb(152,143,248)">
    <rect x="88.0" y="80.0" width="8.0" height="8.0"/>
    <rect x="136.0" y="128.0" width="8.0" height="8.0"/>
  </g>
  <g fill="rgb(75,68,213)">
    <rect x="96.0" y="80.0" width="8.0" height="8.0"/>
  </g>
  <g fill="rgb(158,147,248)">
    <rect x="104.0" y="80.0" width="8.0" height="8.0"/>
  </g>
  <g fill="rgb(156,142,251)">
    <rect x="112.0" y="80.0" width="8.0" height="8.0"/>
  </g>
  <g fill="rgb(201,203,250)">
    <rect x="120.0" y="80.0" width="8.0" height="8.0"/>
  </g>
  <g fill="rgb(156,149,248)">
    <rect x="128.0" y="80.0" width="8.0" height="8.0"/>
  </g>
  <g fill="rgb(158,152,248)">
    <rect x="136.0" y="80.0" width="8.0" height="8.0"/>
  </g>
  <g fill="rgb(152,133,250)">
    <rect x="144.0" y="80.0" width="8.0" height="8.0"/>
  </g>
  <g fill="rgb(146,147,246)">
    <rect x="152.0" y="80.0" width="8.0" height="8.0"/>
  </g>
  <g fill="rgb(149,144,247)">
    <rect x="160.0" y="80.0" width="8.0" height="8.0"/>
  </g>
  <g fill="rgb(154,143,248)">
    <rect x="168.0" y="80.0" width="8.0" height="8.0"/>
    <rect x="96.0" y="104.0" width="8.0" height="8.0"/>
  </g>
  <g fill="rgb(54,52,176)">
    <rect x="176.0" y="80.0" width="8.0" height="8.0"/>
  </g>
  <g fill="rgb(39,38,140)">
    <rect x="184.0" y="80.0" width="8.0" height="8.0"/>
  </g>
  <g fill="rgb(155,137,251)">
    <rect x="72.0" y="88.0" width="8.0" height="8.0"/>
  </g>
  <g fill="rgb(152,134,250)">
    <rect x="80.0" y="88.0" width="8.0" height="8.0"/>
  </g>
  <g fill="rgb(152,134,249)">
    <rect x="88.0" y="88.0" width="8.0" height="8.0"/>
  </g>
  <g fill="rgb(77,65,216)">
    <rect x="96.0" y="88.0" width="8.0" height="8.0"/>
  </g>
  <g fill="rgb(155,141,249)">
    <rect x="104.0" y="88.0" width="8.0" height="8.0"/>
  </g>
  <g fill="rgb(158,142,251)">
    <rect x="112.0" y="88.0" width="8.0" height="8.0"/>
    <rect x="136.0" y="96.0" width="8.0" height="8.0"/>
  </g>
  <g fill="rgb(154,141,248)">
    <rect x="120.0" y="88.0" width="8.0" height="8.0"/>
  </g>
  <g fill="rgb(159,139,251)">
    <rect x="128.0" y="88.0" width="8.0" height="8.0"/>
  </g>
  <g fill="rgb(157,150,248)">
    <rect x="136.0" y="88.0" width="8.0" height="8.0"/>
  </g>
  <g fill="rgb(95,74,243)">
    <rect x="144.0" y="88.0" width="8.0" height="8.0"/>
  </g>
  <g fill="rgb(152,133,251)">
    <rect x="152.0" y="88.0" width="8.0" height="8.0"/>
    <rect x="112.0" y="112.0" width="8.0" height="8.0"/>
  </g>
  <g fill="rgb(157,139,252)">
    <rect x="160.0" y="88.0" width="8.0" height="8.0"/>
  </g>
  <g fill="rgb(117,110,245)">
    <rect x="168.0" y="88.0" width="8.0" height="8.0"/>
  </g>
  <g fill="rgb(155,146,250)">
    <rect x="176.0" y="88.0" width="8.0" height="8.0"/>
  </g>
  <g fill="rgb(115,97,248)">
    <rect x="184.0" y="88.0" width="8.0" height="8.0"/>
  </g>
  <g fill="rgb(36,36,131)">
    <rect x="64.0" y="96.0" width="8.0" height="8.0"/>
  </g>
  <g fill="rgb(153,136,250)">
    <rect x="72.0" y="96.0" width="8.0" height="8.0"/>
    <rect x="128.0" y="112.0" width="8.0" height="8.0"/>
  </g>
  <g fill="rgb(151,134,249)">
    <rect x="80.0" y="96.0" width="8.0" height="8.0"/>
  </g>
  <g fill="rgb(85,88,224)">
    <rect x="88.0" y="96.0" width="8.0" height="8.0"/>
  </g>
  <g fill="rgb(158,143,249)">
    <rect x="96.0" y="96.0" width="8.0" height="8.0"/>
  </g>
  <g fill="rgb(156,141,249)">
    <rect x="104.0" y="96.0" width="8.0" height="8.0"/>
  </g>
  <g fill="rgb(159,153,247)">
    <rect x="112.0" y="96.0" width="8.0" height="8.0"/>
  </g>
  <g fill="rgb(158,147,247)">
    <rect x="120.0" y="96.0" width="8.0" height="8.0"/>
  </g>
  <g fill="rgb(125,115,253)">
    <rect x="128.0" y="96.0" width="8.0" height="8.0"/>
  </g>
  <g fill="rgb(152,144,249)">
    <rect x="144.0" y="96.0" width="8.0" height="8.0"/>
  </g>
  <g fill="rgb(154,135,248)">
    <rect x="152.0" y="96.0" width="8.0" height="8.0"/>
  </g>
  <g fill="rgb(154,137,249)">
    <rect x="160.0" y="96.0" width="8.0" height="8.0"/>
  </g>
  <g fill="rgb(155,136,250)">
    <rect x="168.0" y="96.0" width="8.0" height="8.0"/>
  </g>
  <g fill="rgb(151,134,251)">
    <rect x="176.0" y="96.0" width="8.0" height="8.0"/>
    <rect x="104.0" y="112.0" width="8.0" height="8.0"/>
  </g>
  <g fill="rgb(151,132,251)">
    <rect x="184.0" y="96.0" width="8.0" height="8.0"/>
  </g>
  <g fill="rgb(43,43,144)">
    <rect x="192.0" y="96.0" width="8.0" height="8.0"/>
  </g>
  <g fill="rgb(12,30,106)">
    <rect x="56.0" y="104.0" width="8.0" height="8.0"/>
  </g>
  <g fill="rgb(100,79,244)">
    <rect x="64.0" y="104.0" width="8.0" height="8.0"/>
  </g>
  <g fill="rgb(80,66,223)">
    <rect x="72.0" y="104.0" width="8.0" height="8.0"/>
  </g>
  <g fill="rgb(144,122,252)">
    <rect x="80.0" y="104.0" width="8.0" height="8.0"/>
  </g>
  <g fill="rgb(95,62,246)">
    <rect x="88.0" y="104.0" width="8.0" height="8.0"/>
  </g>
  <g fill="rgb(151,143,248)">
    <rect x="104.0" y="104.0" width="8.0" height="8.0"/>
  </g>
  <g fill="rgb(153,146,247)">
    <rect x="120.0" y="104.0" width="8.0" height="8.0"/>
  </g>
  <g fill="rgb(154,148,249)">
    <rect x="128.0" y="104.0" width="8.0" height="8.0"/>
  </g>
  <g fill="rgb(82,60,226)">
    <rect x="136.0" y="104.0" width="8.0" height="8.0"/>
  </g>
  <g fill="rgb(153,140,250)">
    <rect x="144.0" y="104.0" width="8.0" height="8.0"/>
  </g>
  <g fill="rgb(80,67,216)">
    <rect x="152.0" y="104.0" width="8.0" height="8.0"/>
  </g>
  <g fill="rgb(94,68,237)">
    <rect x="160.0" y="104.0" width="8.0" height="8.0"/>
  </g>
  <g fill="rgb(90,68,233)">
    <rect x="168.0" y="104.0" width="8.0" height="8.0"/>
  </g>
  <g fill="rgb(150,135,250)">
    <rect x="176.0" y="104.0" width="8.0" height="8.0"/>
  </g>
  <g fill="rgb(115,94,248)">
    <rect x="184.0" y="104.0" width="8.0" height="8.0"/>
  </g>
  <g fill="rgb(41,42,143)">
    <rect x="192.0" y="104.0" width="8.0" height="8.0"/>
  </g>
  <g fill="rgb(146,126,249)">
    <rect x="56.0" y="112.0" width="8.0" height="8.0"/>
  </g>
  <g fill="rgb(145,127,251)">
    <rect x="64.0" y="112.0" width="8.0" height="8.0"/>
    <rect x="72.0" y="144.0" width="8.0" height="8.0"/>
  </g>
  <g fill="rgb(146,129,250)">
    <rect x="72.0" y="112.0" width="8.0" height="8.0"/>
    <rect x="112.0" y="144.0" width="8.0" height="8.0"/>
  </g>
  <g fill="rgb(151,133,251)">
    <rect x="80.0" y="112.0" width="8.0" height="8.0"/>
  </g>
  <g fill="rgb(150,133,250)">
    <rect x="88.0" y="112.0" width="8.0" height="8.0"/>
  </g>
  <g fill="rgb(151,141,249)">
    <rect x="120.0" y="112.0" width="8.0" height="8.0"/>
    <rect x="128.0" y="120.0" width="8.0" height="8.0"/>
  </g>
  <g fill="rgb(153,137,248)">
    <rect x="136.0" y="112.0" width="8.0" height="8.0"/>
  </g>
  <g fill="rgb(78,64,220)">
    <rect x="144.0" y="112.0" width="8.0" height="8.0"/>
  </g>
  <g fill="rgb(157,143,250)">
    <rect x="152.0" y="112.0" width="8.0" height="8.0"/>
  </g>
  <g fill="rgb(154,141,250)">
    <rect x="160.0" y="112.0" width="8.0" height="8.0"/>
  </g>
  <g fill="rgb(158,138,249)">
    <rect x="168.0" y="112.0" width="8.0" height="8.0"/>
  </g>
  <g fill="rgb(68,57,217)">
    <rect x="176.0" y="112.0" width="8.0" height="8.0"/>
  </g>
  <g fill="rgb(81,61,231)">
    <rect x="184.0" y="112.0" width="8.0" height="8.0"/>
  </g>
  <g fill="rgb(22,36,112)">
    <rect x="192.0" y="112.0" width="8.0" height="8.0"/>
  </g>
  <g fill="rgb(145,126,250)">
    <rect x="56.0" y="120.0" width="8.0" height="8.0"/>
    <rect x="88.0" y="136.0" width="8.0" height="8.0"/>
  </g>
  <g fill="rgb(156,144,252)">
    <rect x="64.0" y="120.0" width="8.0" height="8.0"/>
  </g>
  <g fill="rgb(23,33,105)">
    <rect x="72.0" y="120.0" width="8.0" height="8.0"/>
  </g>
  <g fill="rgb(148,129,251)">
    <rect x="80.0" y="120.0" width="8.0" height="8.0"/>
  </g>
  <g fill="rgb(148,130,249)">
    <rect x="88.0" y="120.0" width="8.0" height="8.0"/>
  </g>
  <g fill="rgb(148,129,250)">
    <rect x="96.0" y="120.0" width="8.0" height="8.0"/>
  </g>
  <g fill="rgb(150,131,251)">
    <rect x="104.0" y="120.0" width="8.0" height="8.0"/>
  </g>
  <g fill="rgb(30,34,119)">
    <rect x="112.0" y="120.0" width="8.0" height="8.0"/>
  </g>
  <g fill="rgb(154,143,249)">
    <rect x="120.0" y="120.0" width="8.0" height="8.0"/>
  </g>
  <g fill="rgb(152,142,249)">
    <rect x="136.0" y="120.0" width="8.0" height="8.0"/>
  </g>
  <g fill="rgb(118,107,252)">
    <rect x="144.0" y="120.0" width="8.0" height="8.0"/>
  </g>
  <g fill="rgb(153,138,249)">
    <rect x="152.0" y="120.0" width="8.0" height="8.0"/>
  </g>
  <g fill="rgb(160,147,250)">
    <rect x="160.0" y="120.0" width="8.0" height="8.0"/>
  </g>
  <g fill="rgb(146,131,252)">
    <rect x="168.0" y="120.0" width="8.0" height="8.0"/>
  </g>
  <g fill="rgb(72,56,221)">
    <rect x="176.0" y="120.0" width="8.0" height="8.0"/>
  </g>
  <g fill="rgb(84,67,232)">
    <rect x="184.0" y="120.0" width="8.0" height="8.0"/>
  </g>
  <g fill="rgb(65,45,209)">
    <rect x="192.0" y="120.0" width="8.0" height="8.0"/>
  </g>
  <g fill="rgb(129,124,191)">
    <rect x="200.0" y="120.0" width="8.0" height="8.0"/>
  </g>
  <g fill="rgb(142,124,250)">
    <rect x="56.0" y="128.0" width="8.0" height="8.0"/>
  </g>
  <g fill="rgb(23,31,104)">
    <rect x="64.0" y="128.0" width="8.0" height="8.0"/>
  </g>
  <g fill="rgb(21,32,101)">
    <rect x="72.0" y="128.0" width="8.0" height="8.0"/>
  </g>
  <g fill="rgb(147,127,251)">
    <rect x="80.0" y="128.0" width="8.0" height="8.0"/>
    <rect x="96.0" y="128.0" width="8.0" height="8.0"/>
  </g>
  <g fill="rgb(147,129,249)">
    <rect x="88.0" y="128.0" width="8.0" height="8.0"/>
  </g>
  <g fill="rgb(25,30,113)">
    <rect x="104.0" y="128.0" width="8.0" height="8.0"/>
  </g>
  <g fill="rgb(22,32,104)">
    <rect x="112.0" y="128.0" width="8.0" height="8.0"/>
  </g>
  <g fill="rgb(96,97,207)">
    <rect x="120.0" y="128.0" width="8.0" height="8.0"/>
  </g>
  <g fill="rgb(153,137,250)">
    <rect x="128.0" y="128.0" width="8.0" height="8.0"/>
  </g>
  <g fill="rgb(117,107,252)">
    <rect x="144.0" y="128.0" width="8.0" height="8.0"/>
  </g>
  <g fill="rgb(123,106,249)">
    <rect x="152.0" y="128.0" width="8.0" height="8.0"/>
  </g>
  <g fill="rgb(161,146,251)">
    <rect x="160.0" y="128.0" width="8.0" height="8.0"/>
  </g>
  <g fill="rgb(116,103,251)">
    <rect x="168.0" y="128.0" width="8.0" height="8.0"/>
  </g>
  <g fill="rgb(125,112,250)">
    <rect x="176.0" y="128.0" width="8.0" height="8.0"/>
  </g>
  <g fill="rgb(124,110,252)">
    <rect x="184.0" y="128.0" width="8.0" height="8.0"/>
  </g>
  <g fill="rgb(93,84,241)">
    <rect x="192.0" y="128.0" width="8.0" height="8.0"/>
  </g>
  <g fill="rgb(132,128,193)">
    <rect x="200.0" y="128.0" width="8.0" height="8.0"/>
  </g>
  <g fill="rgb(142,125,250)">
    <rect x="56.0" y="136.0" width="8.0" height="8.0"/>
  </g>
  <g fill="rgb(119,100,236)">
    <rect x="64.0" y="136.0" width="8.0" height="8.0"/>
  </g>
  <g fill="rgb(20,31,99)">
    <rect x="72.0" y="136.0" width="8.0" height="8.0"/>
  </g>
  <g fill="rgb(146,125,252)">
    <rect x="80.0" y="136.0" width="8.0" height="8.0"/>
  </g>
  <g fill="rgb(146,125,251)">
    <rect x="96.0" y="136.0" width="8.0" height="8.0"/>
  </g>
  <g fill="rgb(145,125,247)">
    <rect x="104.0" y="136.0" width="8.0" height="8.0"/>
  </g>
  <g fill="rgb(21,31,104)">
    <rect x="112.0" y="136.0" width="8.0" height="8.0"/>
  </g>
  <g fill="rgb(136,123,240)">
    <rect x="120.0" y="136.0" width="8.0" height="8.0"/>
  </g>
  <g fill="rgb(152,134,251)">
    <rect x="128.0" y="136.0" width="8.0" height="8.0"/>
  </g>
  <g fill="rgb(152,141,250)">
    <rect x="136.0" y="136.0" width="8.0" height="8.0"/>
  </g>
  <g fill="rgb(155,141,250)">
    <rect x="144.0" y="136.0" width="8.0" height="8.0"/>
  </g>
  <g fill="rgb(157,142,251)">
    <rect x="152.0" y="136.0" width="8.0" height="8.0"/>
  </g>
  <g fill="rgb(110,95,252)">
    <rect x="160.0" y="136.0" width="8.0" height="8.0"/>
  </g>
  <g fill="rgb(116,101,251)">
    <rect x="168.0" y="136.0" width="8.0" height="8.0"/>
  </g>
  <g fill="rgb(122,112,250)">
    <rect x="176.0" y="136.0" width="8.0" height="8.0"/>
  </g>
  <g fill="rgb(122,109,252)">
    <rect x="184.0" y="136.0" width="8.0" height="8.0"/>
  </g>
  <g fill="rgb(93,81,242)">
    <rect x="192.0" y="136.0" width="8.0" height="8.0"/>
  </g>
  <g fill="rgb(139,135,197)">
    <rect x="200.0" y="136.0" width="8.0" height="8.0"/>
  </g>
  <g fill="rgb(93,83,238)">
    <rect x="56.0" y="144.0" width="8.0" height="8.0"/>
  </g>
  <g fill="rgb(141,126,250)">
    <rect x="64.0" y="144.0" width="8.0" height="8.0"/>
  </g>
  <g fill="rgb(145,126,251)">
    <rect x="80.0" y="144.0" width="8.0" height="8.0"/>
  </g>
  <g fill="rgb(45,37,170)">
    <rect x="88.0" y="144.0" width="8.0" height="8.0"/>
  </g>
  <g fill="rgb(86,74,198)">
    <rect x="96.0" y="144.0" width="8.0" height="8.0"/>
  </g>
  <g fill="rgb(146,128,250)">
    <rect x="104.0" y="144.0" width="8.0" height="8.0"/>
  </g>
  <g fill="rgb(152,142,250)">
    <rect x="120.0" y="144.0" width="8.0" height="8.0"/>
  </g>
  <g fill="rgb(150,140,251)">
    <rect x="128.0" y="144.0" width="8.0" height="8.0"/>
  </g>
  <g fill="rgb(121,112,251)">
    <rect x="136.0" y="144.0" width="8.0" height="8.0"/>
  </g>
  <g fill="rgb(122,112,252)">
    <rect x="144.0" y="144.0" width="8.0" height="8.0"/>
  </g>
  <g fill="rgb(124,112,252)">
    <rect x="152.0" y="144.0" width="8.0" height="8.0"/>
  </g>
  <g fill="rgb(118,104,251)">
    <rect x="160.0" y="144.0" width="8.0" height="8.0"/>
  </g>
  <g fill="rgb(92,69,242)">
    <rect x="168.0" y="144.0" width="8.0" height="8.0"/>
  </g>
  <g fill="rgb(102,93,244)">
    <rect x="176.0" y="144.0" width="8.0" height="8.0"/>
  </g>
  <g fill="rgb(93,85,240)">
    <rect x="184.0" y="144.0" width="8.0" height="8.0"/>
  </g>
  <g fill="rgb(90,89,247)">
    <rect x="192.0" y="144.0" width="8.0" height="8.0"/>
  </g>
  <g fill="rgb(161,162,215)">
    <rect x="200.0" y="144.0" width="8.0" height="8.0"/>
  </g>
  <g fill="rgb(8,30,99)">
    <rect x="56.0" y="152.0" width="8.0" height="8.0"/>
  </g>
  <g fill="rgb(72,55,218)">
    <rect x="64.0" y="152.0" width="8.0" height="8.0"/>
  </g>
  <g fill="rgb(146,128,251)">
    <rect x="72.0" y="152.0" width="8.0" height="8.0"/>
  </g>
  <g fill="rgb(146,126,251)">
    <rect x="80.0" y="152.0" width="8.0" height="8.0"/>
  </g>
  <g fill="rgb(146,126,250)">
    <rect x="88.0" y="152.0" width="8.0" height="8.0"/>
  </g>
  <g fill="rgb(146,127,252)">
    <rect x="96.0" y="152.0" width="8.0" height="8.0"/>
  </g>
  <g fill="rgb(145,127,250)">
    <rect x="104.0" y="152.0" width="8.0" height="8.0"/>
  </g>
  <g fill="rgb(146,130,250)">
    <rect x="112.0" y="152.0" width="8.0" height="8.0"/>
  </g>
  <g fill="rgb(113,95,248)">
    <rect x="120.0" y="152.0" width="8.0" height="8.0"/>
  </g>
  <g fill="rgb(76,65,221)">
    <rect x="128.0" y="152.0" width="8.0" height="8.0"/>
  </g>
  <g fill="rgb(121,110,251)">
    <rect x="136.0" y="152.0" width="8.0" height="8.0"/>
  </g>
  <g fill="rgb(125,114,252)">
    <rect x="144.0" y="152.0" width="8.0" height="8.0"/>
  </g>
  <g fill="rgb(83,69,229)">
    <rect x="152.0" y="152.0" width="8.0" height="8.0"/>
  </g>
  <g fill="rgb(120,100,253)">
    <rect x="160.0" y="152.0" width="8.0" height="8.0"/>
  </g>
  <g fill="rgb(91,69,240)">
    <rect x="168.0" y="152.0" width="8.0" height="8.0"/>
  </g>
  <g fill="rgb(115,103,251)">
    <rect x="176.0" y="152.0" width="8.0" height="8.0"/>
  </g>
  <g fill="rgb(89,78,241)">
    <rect x="184.0" y="152.0" width="8.0" height="8.0"/>
  </g>
  <g fill="rgb(10,33,103)">
    <rect x="192.0" y="152.0" width="8.0" height="8.0"/>
  </g>
  <g fill="rgb(51,41,183)">
    <rect x="72.0" y="160.0" width="8.0" height="8.0"/>
  </g>
  <g fill="rgb(97,83,245)">
    <rect x="80.0" y="160.0" width="8.0" height="8.0"/>
  </g>
  <g fill="rgb(96,87,244)">
    <rect x="88.0" y="160.0" width="8.0" height="8.0"/>
  </g>
  <g fill="rgb(101,87,247)">
    <rect x="96.0" y="160.0" width="8.0" height="8.0"/>
  </g>
  <g fill="rgb(99,88,246)">
    <rect x="104.0" y="160.0" width="8.0" height="8.0"/>
  </g>
  <g fill="rgb(99,88,244)">
    <rect x="112.0" y="160.0" width="8.0" height="8.0"/>
  </g>
  <g fill="rgb(115,108,250)">
    <rect x="120.0" y="160.0" width="8.0" height="8.0"/>
  </g>
  <g fill="rgb(115,104,251)">
    <rect x="128.0" y="160.0" width="8.0" height="8.0"/>
  </g>
  <g fill="rgb(80,73,220)">
    <rect x="136.0" y="160.0" width="8.0" height="8.0"/>
  </g>
  <g fill="rgb(118,103,250)">
    <rect x="144.0" y="160.0" width="8.0" height="8.0"/>
  </g>
  <g fill="rgb(77,65,220)">
    <rect x="152.0" y="160.0" width="8.0" height="8.0"/>
  </g>
  <g fill="rgb(80,66,225)">
    <rect x="160.0" y="160.0" width="8.0" height="8.0"/>
  </g>
  <g fill="rgb(37,27,137)">
    <rect x="168.0" y="160.0" width="8.0" height="8.0"/>
  </g>
  <g fill="rgb(24,27,117)">
    <rect x="176.0" y="160.0" width="8.0" height="8.0"/>
  </g>
  <g fill="rgb(23,27,104)">
    <rect x="184.0" y="160.0" width="8.0" height="8.0"/>
  </g>
  <g fill="rgb(23,26,107)">
    <rect x="80.0" y="168.0" width="8.0" height="8.0"/>
  </g>
  <g fill="rgb(24,29,105)">
    <rect x="88.0" y="168.0" width="8.0" height="8.0"/>
  </g>
  <g fill="rgb(11,27,93)">
    <rect x="96.0" y="168.0" width="8.0" height="8.0"/>
  </g>
  <g fill="rgb(63,51,204)">
    <rect x="104.0" y="168.0" width="8.0" height="8.0"/>
  </g>
  <g fill="rgb(97,84,245)">
    <rect x="112.0" y="168.0" width="8.0" height="8.0"/>
  </g>
  <g fill="rgb(69,61,212)">
    <rect x="120.0" y="168.0" width="8.0" height="8.0"/>
  </g>
  <g fill="rgb(69,60,208)">
    <rect x="128.0" y="168.0" width="8.0" height="8.0"/>
  </g>
  <g fill="rgb(114,97,250)">
    <rect x="136.0" y="168.0" width="8.0" height="8.0"/>
  </g>
  <g fill="rgb(114,105,251)">
    <rect x="144.0" y="168.0" width="8.0" height="8.0"/>
  </g>
  <g fill="rgb(119,104,251)">
    <rect x="152.0" y="168.0" width="8.0" height="8.0"/>
  </g>
  <g fill="rgb(121,108,252)">
    <rect x="160.0" y="168.0" width="8.0" height="8.0"/>
  </g>
  <g fill="rgb(31,30,119)">
    <rect x="168.0" y="168.0" width="8.0" height="8.0"/>
  </g>
  <g fill="rgb(49,40,173)">
    <rect x="96.0" y="176.0" width="8.0" height="8.0"/>
  </g>
  <g fill="rgb(67,57,216)">
    <rect x="104.0" y="176.0" width="8.0" height="8.0"/>
  </g>
  <g fill="rgb(24,25,104)">
    <rect x="112.0" y="176.0" width="8.0" height="8.0"/>
  </g>
  <g fill="rgb(58,46,201)">
    <rect x="136.0" y="176.0" width="8.0" height="8.0"/>
  </g>
  <g fill="rgb(63,54,206)">
    <rect x="144.0" y="176.0" width="8.0" height="8.0"/>
  </g>
  <g fill="rgb(31,34,122)">
    <rect x="152.0" y="176.0" width="8.0" height="8.0"/>
  </g>
  <g fill="rgb(46,35,165)">
    <rect x="96.0" y="184.0" width="8.0" height="8.0"/>
  </g>
  <g fill="rgb(68,55,213)">
    <rect x="104.0" y="184.0" width="8.0" height="8.0"/>
  </g>
  <g fill="rgb(46,36,167)">
    <rect x="112.0" y="184.0" width="8.0" height="8.0"/>
  </g>
  <g fill="rgb(94,70,246)">
    <rect x="136.0" y="184.0" width="8.0" height="8.0"/>
  </g>
  <g fill="rgb(94,78,247)">
    <rect x="144.0" y="184.0" width="8.0" height="8.0"/>
  </g>
  <g fill="rgb(23,29,112)">
    <rect x="88.0" y="192.0" width="8.0" height="8.0"/>
  </g>
  <g fill="rgb(96,86,245)">
    <rect x="96.0" y="192.0" width="8.0" height="8.0"/>
  </g>
  <g fill="rgb(68,48,219)">
    <rect x="104.0" y="192.0" width="8.0" height="8.0"/>
  </g>
  <g fill="rgb(9,30,101)">
    <rect x="112.0" y="192.0" width="8.0" height="8.0"/>
  </g>
  <g fill="rgb(156,162,248)">
    <rect x="120.0" y="192.0" width="8.0" height="8.0"/>
  </g>
  <g fill="rgb(12,34,103)">
    <rect x="128.0" y="192.0" width="8.0" height="8.0"/>
  </g>
  <g fill="rgb(112,99,251)">
    <rect x="136.0" y="192.0" width="8.0" height="8.0"/>
  </g>
  <g fill="rgb(94,76,246)">
    <rect x="144.0" y="192.0" width="8.0" height="8.0"/>
  </g>
  <g fill="rgb(163,171,252)">
    <rect x="152.0" y="192.0" width="8.0" height="8.0"/>
  </g>
  <g fill="rgb(159,170,251)">
    <rect x="160.0" y="192.0" width="8.0" height="8.0"/>
  </g>
  <g fill="rgb(156,159,247)">
    <rect x="88.0" y="200.0" width="8.0" height="8.0"/>
  </g>
  <g fill="rgb(156,156,248)">
    <rect x="96.0" y="200.0" width="8.0" height="8.0"/>
  </g>
  <g fill="rgb(155,158,247)">
    <rect x="104.0" y="200.0" width="8.0" height="8.0"/>
  </g>
  <g fill="rgb(157,158,248)">
    <rect x="112.0" y="200.0" width="8.0" height="8.0"/>
  </g>
  <g fill="rgb(157,159,249)">
    <rect x="120.0" y="200.0" width="8.0" height="8.0"/>
  </g>
  <g fill="rgb(158,161,248)">
    <rect x="128.0" y="200.0" width="8.0" height="8.0"/>
  </g>
  <g fill="rgb(157,161,247)">
    <rect x="136.0" y="200.0" width="8.0" height="8.0"/>
  </g>
  <g fill="rgb(159,163,248)">
    <rect x="144.0" y="200.0" width="8.0" height="8.0"/>
    <rect x="160.0" y="200.0" width="8.0" height="8.0"/>
  </g>
  <g fill="rgb(160,163,249)">
    <rect x="152.0" y="200.0" width="8.0" height="8.0"/>
  </g>
  </g>
</svg>