<svg xmlns="http://www.w3.org/2000/svg" viewBox="0 0 128 128" width="128" height="128">
  <!-- Dark circle background -->
  <circle cx="64" cy="64" r="64" fill="#12122a"/>
  <!-- Phren pixel art - 4px per cell on 32x32 grid -->
  <g id="phren-icon">
    <!-- Dark outline (#2D2255) -->
    <g fill="#2D2255">
      <!-- Top of head -->
      <rect x="44" y="16" width="4" height="4"/>
      <rect x="48" y="16" width="4" height="4"/>
      <rect x="52" y="12" width="4" height="4"/>
      <rect x="56" y="12" width="4" height="4"/>
      <rect x="60" y="12" width="4" height="4"/>
      <rect x="64" y="12" width="4" height="4"/>
      <rect x="68" y="12" width="4" height="4"/>
      <rect x="72" y="16" width="4" height="4"/>
      <rect x="76" y="16" width="4" height="4"/>
      <!-- Left side -->
      <rect x="36" y="20" width="4" height="4"/>
      <rect x="32" y="24" width="4" height="4"/>
      <rect x="28" y="28" width="4" height="4"/>
      <rect x="24" y="32" width="4" height="4"/>
      <rect x="24" y="36" width="4" height="4"/>
      <rect x="20" y="40" width="4" height="4"/>
      <rect x="20" y="44" width="4" height="4"/>
      <rect x="20" y="48" width="4" height="4"/>
      <rect x="20" y="52" width="4" height="4"/>
      <rect x="20" y="56" width="4" height="4"/>
      <rect x="20" y="60" width="4" height="4"/>
      <rect x="24" y="64" width="4" height="4"/>
      <rect x="24" y="68" width="4" height="4"/>
      <rect x="28" y="72" width="4" height="4"/>
      <rect x="32" y="76" width="4" height="4"/>
      <!-- Right side -->
      <rect x="80" y="20" width="4" height="4"/>
      <rect x="84" y="24" width="4" height="4"/>
      <rect x="88" y="28" width="4" height="4"/>
      <rect x="92" y="32" width="4" height="4"/>
      <rect x="92" y="36" width="4" height="4"/>
      <rect x="96" y="40" width="4" height="4"/>
      <rect x="96" y="44" width="4" height="4"/>
      <rect x="96" y="48" width="4" height="4"/>
      <rect x="96" y="52" width="4" height="4"/>
      <rect x="96" y="56" width="4" height="4"/>
      <rect x="96" y="60" width="4" height="4"/>
      <rect x="92" y="64" width="4" height="4"/>
      <rect x="92" y="68" width="4" height="4"/>
      <rect x="88" y="72" width="4" height="4"/>
      <rect x="84" y="76" width="4" height="4"/>
      <!-- Bottom -->
      <rect x="36" y="76" width="4" height="4"/>
      <rect x="40" y="80" width="4" height="4"/>
      <rect x="44" y="80" width="4" height="4"/>
      <rect x="76" y="80" width="4" height="4"/>
      <rect x="80" y="80" width="4" height="4"/>
    </g>
    <!-- Mid-dark purple (#3D3270) -->
    <g fill="#3D3270">
      <rect x="40" y="20" width="4" height="4"/>
      <rect x="36" y="24" width="4" height="4"/>
      <rect x="32" y="28" width="4" height="4"/>
      <rect x="28" y="32" width="4" height="4"/>
      <rect x="28" y="36" width="4" height="4"/>
      <rect x="24" y="40" width="4" height="4"/>
      <rect x="24" y="44" width="4" height="4"/>
      <rect x="24" y="48" width="4" height="4"/>
      <rect x="28" y="64" width="4" height="4"/>
      <rect x="28" y="68" width="4" height="4"/>
      <rect x="32" y="72" width="4" height="4"/>
      <rect x="36" y="72" width="4" height="4"/>
      <rect x="84" y="20" width="4" height="4"/>
      <rect x="88" y="24" width="4" height="4"/>
      <rect x="88" y="32" width="4" height="4"/>
      <rect x="92" y="40" width="4" height="4"/>
      <rect x="92" y="44" width="4" height="4"/>
      <rect x="92" y="48" width="4" height="4"/>
      <rect x="88" y="64" width="4" height="4"/>
      <rect x="88" y="68" width="4" height="4"/>
      <rect x="84" y="72" width="4" height="4"/>
      <rect x="80" y="72" width="4" height="4"/>
    </g>
    <!-- Shadow purple (#5B4B8A) -->
    <g fill="#5B4B8A">
      <rect x="44" y="20" width="4" height="4"/>
      <rect x="40" y="24" width="4" height="4"/>
      <rect x="36" y="28" width="4" height="4"/>
      <rect x="32" y="32" width="4" height="4"/>
      <rect x="28" y="40" width="4" height="4"/>
      <rect x="28" y="44" width="4" height="4"/>
      <rect x="28" y="48" width="4" height="4"/>
      <rect x="28" y="52" width="4" height="4"/>
      <rect x="28" y="56" width="4" height="4"/>
      <rect x="28" y="60" width="4" height="4"/>
      <rect x="32" y="64" width="4" height="4"/>
      <rect x="32" y="68" width="4" height="4"/>
      <rect x="36" y="68" width="4" height="4"/>
      <rect x="40" y="72" width="4" height="4"/>
      <rect x="44" y="72" width="4" height="4"/>
      <!-- Right shadow -->
      <rect x="84" y="28" width="4" height="4"/>
      <rect x="88" y="36" width="4" height="4"/>
      <rect x="88" y="40" width="4" height="4"/>
      <rect x="88" y="44" width="4" height="4"/>
      <rect x="88" y="48" width="4" height="4"/>
      <rect x="88" y="52" width="4" height="4"/>
      <rect x="88" y="56" width="4" height="4"/>
      <rect x="88" y="60" width="4" height="4"/>
      <rect x="84" y="64" width="4" height="4"/>
      <rect x="80" y="68" width="4" height="4"/>
      <rect x="76" y="72" width="4" height="4"/>
      <rect x="72" y="72" width="4" height="4"/>
      <!-- Brain wrinkle shadows -->
      <rect x="48" y="24" width="4" height="4"/>
      <rect x="56" y="24" width="4" height="4"/>
      <rect x="64" y="24" width="4" height="4"/>
      <rect x="72" y="24" width="4" height="4"/>
      <rect x="44" y="32" width="4" height="4"/>
      <rect x="52" y="32" width="4" height="4"/>
      <rect x="60" y="32" width="4" height="4"/>
      <rect x="68" y="32" width="4" height="4"/>
      <rect x="76" y="32" width="4" height="4"/>
      <rect x="40" y="40" width="4" height="4"/>
      <rect x="48" y="40" width="4" height="4"/>
      <rect x="72" y="40" width="4" height="4"/>
      <rect x="80" y="40" width="4" height="4"/>
    </g>
    <!-- Base purple (#7B68AE) - main body fill -->
    <g fill="#7B68AE">
      <rect x="52" y="16" width="16" height="4"/>
      <rect x="48" y="20" width="32" height="4"/>
      <rect x="44" y="24" width="4" height="4"/>
      <rect x="52" y="24" width="4" height="4"/>
      <rect x="60" y="24" width="4" height="4"/>
      <rect x="68" y="24" width="4" height="4"/>
      <rect x="76" y="24" width="8" height="4"/>
      <rect x="40" y="28" width="44" height="4"/>
      <rect x="36" y="32" width="8" height="4"/>
      <rect x="48" y="32" width="4" height="4"/>
      <rect x="56" y="32" width="4" height="4"/>
      <rect x="64" y="32" width="4" height="4"/>
      <rect x="72" y="32" width="4" height="4"/>
      <rect x="80" y="32" width="8" height="4"/>
      <rect x="32" y="36" width="56" height="4"/>
      <rect x="32" y="40" width="8" height="4"/>
      <rect x="44" y="40" width="4" height="4"/>
      <rect x="52" y="40" width="20" height="4"/>
      <rect x="76" y="40" width="4" height="4"/>
      <rect x="84" y="40" width="4" height="4"/>
      <rect x="32" y="44" width="56" height="4"/>
      <rect x="32" y="48" width="56" height="4"/>
      <rect x="32" y="52" width="56" height="4"/>
      <rect x="32" y="56" width="56" height="4"/>
      <rect x="32" y="60" width="56" height="4"/>
      <rect x="36" y="64" width="48" height="4"/>
      <rect x="40" y="68" width="40" height="4"/>
      <rect x="48" y="72" width="24" height="4"/>
    </g>
    <!-- Highlight purple (#9B8DC8) -->
    <g fill="#9B8DC8">
      <rect x="56" y="16" width="12" height="4"/>
      <rect x="52" y="20" width="4" height="4"/>
      <rect x="60" y="20" width="4" height="4"/>
      <rect x="68" y="20" width="8" height="4"/>
      <rect x="48" y="28" width="4" height="4"/>
      <rect x="56" y="28" width="4" height="4"/>
      <rect x="64" y="28" width="4" height="4"/>
      <rect x="72" y="28" width="4" height="4"/>
      <rect x="48" y="36" width="4" height="4"/>
      <rect x="56" y="36" width="4" height="4"/>
      <rect x="64" y="36" width="4" height="4"/>
      <rect x="72" y="36" width="4" height="4"/>
      <rect x="56" y="44" width="4" height="4"/>
      <rect x="64" y="44" width="4" height="4"/>
    </g>
    <!-- White highlights -->
    <g fill="#FFFFFF" opacity="0.6">
      <rect x="56" y="20" width="4" height="4"/>
      <rect x="64" y="20" width="4" height="4"/>
      <rect x="52" y="28" width="4" height="4"/>
      <rect x="60" y="28" width="4" height="4"/>
    </g>
    <!-- Eyes (dark diamond shapes) -->
    <g fill="#2D2255">
      <!-- Left eye -->
      <rect x="40" y="48" width="4" height="4"/>
      <rect x="36" y="52" width="4" height="4"/>
      <rect x="40" y="52" width="4" height="4"/>
      <rect x="44" y="52" width="4" height="4"/>
      <rect x="40" y="56" width="4" height="4"/>
      <!-- Right eye -->
      <rect x="68" y="48" width="4" height="4"/>
      <rect x="64" y="52" width="4" height="4"/>
      <rect x="68" y="52" width="4" height="4"/>
      <rect x="72" y="52" width="4" height="4"/>
      <rect x="68" y="56" width="4" height="4"/>
    </g>
    <!-- Eye shine -->
    <g fill="#FFFFFF">
      <rect x="36" y="48" width="4" height="4"/>
      <rect x="64" y="48" width="4" height="4"/>
    </g>
    <!-- Smile -->
    <g fill="#3D3270">
      <rect x="52" y="60" width="4" height="4"/>
      <rect x="56" y="64" width="4" height="4"/>
      <rect x="60" y="64" width="4" height="4"/>
      <rect x="64" y="60" width="4" height="4"/>
    </g>
    <!-- Legs -->
    <g fill="#3D3270">
      <rect x="44" y="76" width="8" height="4"/>
      <rect x="44" y="80" width="8" height="4"/>
      <rect x="40" y="84" width="12" height="4"/>
      <rect x="68" y="76" width="8" height="4"/>
      <rect x="68" y="80" width="8" height="4"/>
      <rect x="68" y="84" width="12" height="4"/>
    </g>
    <g fill="#5B4B8A">
      <rect x="48" y="76" width="4" height="4"/>
      <rect x="72" y="76" width="4" height="4"/>
    </g>
    <!-- Shadow under feet -->
    <g fill="#9B8DC8" opacity="0.3">
      <rect x="36" y="88" width="24" height="4"/>
      <rect x="64" y="88" width="24" height="4"/>
    </g>
    <!-- Cyan sparkle (4-pointed star, pixel art) -->
    <g fill="#00E5FF">
      <rect x="88" y="8" width="4" height="4"/>
      <rect x="84" y="12" width="4" height="4"/>
      <rect x="88" y="12" width="4" height="4"/>
      <rect x="92" y="12" width="4" height="4"/>
      <rect x="88" y="16" width="4" height="4"/>
    </g>
    <g fill="#4DFFFF">
      <rect x="88" y="4" width="4" height="4"/>
      <rect x="80" y="12" width="4" height="4"/>
      <rect x="96" y="12" width="4" height="4"/>
      <rect x="88" y="20" width="4" height="4"/>
    </g>
  </g>
</svg>