<svg xmlns="http://www.w3.org/2000/svg" viewBox="0 0 96 112" width="96" height="112">
  <style>
    @keyframes sparkle-pulse {
      0%, 100% { opacity: 1; transform: scale(1); }
      50% { opacity: 0.4; transform: scale(0.7); }
    }
    .sparkle { animation: sparkle-pulse 2s ease-in-out infinite; transform-origin: 82px 10px; }
  </style>
  <!-- Standalone phren character, no background, pixel-art style -->
  <!-- 3px per pixel cell, 32x32 grid -->
  <g id="phren-body">
    <!-- Dark outline (#2D2255) -->
    <g fill="#2D2255">
      <rect x="30" y="6" width="3" height="3"/>
      <rect x="33" y="6" width="3" height="3"/>
      <rect x="36" y="3" width="3" height="3"/>
      <rect x="39" y="3" width="3" height="3"/>
      <rect x="42" y="3" width="3" height="3"/>
      <rect x="45" y="3" width="3" height="3"/>
      <rect x="48" y="3" width="3" height="3"/>
      <rect x="51" y="6" width="3" height="3"/>
      <rect x="54" y="6" width="3" height="3"/>
      <!-- Left side -->
      <rect x="24" y="9" width="3" height="3"/>
      <rect x="21" y="12" width="3" height="3"/>
      <rect x="18" y="15" width="3" height="3"/>
      <rect x="15" y="18" width="3" height="3"/>
      <rect x="15" y="21" width="3" height="3"/>
      <rect x="12" y="24" width="3" height="3"/>
      <rect x="12" y="27" width="3" height="3"/>
      <rect x="12" y="30" width="3" height="3"/>
      <rect x="12" y="33" width="3" height="3"/>
      <rect x="12" y="36" width="3" height="3"/>
      <rect x="12" y="39" width="3" height="3"/>
      <rect x="15" y="42" width="3" height="3"/>
      <rect x="15" y="45" width="3" height="3"/>
      <rect x="18" y="48" width="3" height="3"/>
      <rect x="21" y="51" width="3" height="3"/>
      <!-- Right side -->
      <rect x="57" y="9" width="3" height="3"/>
      <rect x="60" y="12" width="3" height="3"/>
      <rect x="63" y="15" width="3" height="3"/>
      <rect x="66" y="18" width="3" height="3"/>
      <rect x="66" y="21" width="3" height="3"/>
      <rect x="69" y="24" width="3" height="3"/>
      <rect x="69" y="27" width="3" height="3"/>
      <rect x="69" y="30" width="3" height="3"/>
      <rect x="69" y="33" width="3" height="3"/>
      <rect x="69" y="36" width="3" height="3"/>
      <rect x="69" y="39" width="3" height="3"/>
      <rect x="66" y="42" width="3" height="3"/>
      <rect x="66" y="45" width="3" height="3"/>
      <rect x="63" y="48" width="3" height="3"/>
      <rect x="60" y="51" width="3" height="3"/>
      <!-- Bottom -->
      <rect x="24" y="51" width="3" height="3"/>
      <rect x="27" y="54" width="3" height="3"/>
      <rect x="54" y="54" width="3" height="3"/>
      <rect x="57" y="54" width="3" height="3"/>
    </g>
    <!-- Shadow purple (#5B4B8A) -->
    <g fill="#5B4B8A">
      <rect x="27" y="9" width="3" height="3"/>
      <rect x="24" y="12" width="3" height="3"/>
      <rect x="21" y="15" width="3" height="3"/>
      <rect x="18" y="18" width="3" height="3"/>
      <rect x="18" y="21" width="3" height="3"/>
      <rect x="15" y="24" width="3" height="3"/>
      <rect x="15" y="27" width="3" height="3"/>
      <rect x="15" y="30" width="3" height="3"/>
      <rect x="15" y="33" width="3" height="3"/>
      <rect x="15" y="36" width="3" height="3"/>
      <rect x="15" y="39" width="3" height="3"/>
      <rect x="18" y="42" width="3" height="3"/>
      <rect x="18" y="45" width="3" height="3"/>
      <rect x="21" y="48" width="3" height="3"/>
      <rect x="24" y="48" width="3" height="3"/>
      <rect x="27" y="48" width="3" height="3"/>
      <!-- Right shadow -->
      <rect x="63" y="21" width="3" height="3"/>
      <rect x="66" y="24" width="3" height="3"/>
      <rect x="66" y="27" width="3" height="3"/>
      <rect x="66" y="30" width="3" height="3"/>
      <rect x="66" y="33" width="3" height="3"/>
      <rect x="66" y="36" width="3" height="3"/>
      <rect x="66" y="39" width="3" height="3"/>
      <rect x="63" y="42" width="3" height="3"/>
      <rect x="60" y="45" width="3" height="3"/>
      <rect x="57" y="48" width="3" height="3"/>
      <rect x="54" y="48" width="3" height="3"/>
      <!-- Brain wrinkle shadows -->
      <rect x="33" y="12" width="3" height="3"/>
      <rect x="39" y="12" width="3" height="3"/>
      <rect x="45" y="12" width="3" height="3"/>
      <rect x="51" y="12" width="3" height="3"/>
      <rect x="30" y="18" width="3" height="3"/>
      <rect x="36" y="18" width="3" height="3"/>
      <rect x="42" y="18" width="3" height="3"/>
      <rect x="48" y="18" width="3" height="3"/>
      <rect x="54" y="18" width="3" height="3"/>
      <rect x="27" y="24" width="3" height="3"/>
      <rect x="33" y="24" width="3" height="3"/>
      <rect x="51" y="24" width="3" height="3"/>
      <rect x="57" y="24" width="3" height="3"/>
    </g>
    <!-- Base purple (#7B68AE) -->
    <g fill="#7B68AE">
      <rect x="36" y="6" width="15" height="3"/>
      <rect x="30" y="9" width="24" height="3"/>
      <rect x="27" y="12" width="6" height="3"/>
      <rect x="36" y="12" width="3" height="3"/>
      <rect x="42" y="12" width="3" height="3"/>
      <rect x="48" y="12" width="3" height="3"/>
      <rect x="54" y="12" width="3" height="3"/>
      <rect x="24" y="15" width="39" height="3"/>
      <rect x="21" y="18" width="9" height="3"/>
      <rect x="33" y="18" width="3" height="3"/>
      <rect x="39" y="18" width="3" height="3"/>
      <rect x="45" y="18" width="3" height="3"/>
      <rect x="51" y="18" width="3" height="3"/>
      <rect x="57" y="18" width="6" height="3"/>
      <rect x="21" y="21" width="42" height="3"/>
      <rect x="18" y="24" width="9" height="3"/>
      <rect x="30" y="24" width="3" height="3"/>
      <rect x="36" y="24" width="15" height="3"/>
      <rect x="54" y="24" width="3" height="3"/>
      <rect x="60" y="24" width="6" height="3"/>
      <rect x="18" y="27" width="48" height="3"/>
      <rect x="18" y="30" width="48" height="3"/>
      <rect x="18" y="33" width="48" height="3"/>
      <rect x="18" y="36" width="48" height="3"/>
      <rect x="18" y="39" width="48" height="3"/>
      <rect x="21" y="42" width="42" height="3"/>
      <rect x="24" y="45" width="36" height="3"/>
      <rect x="30" y="48" width="24" height="3"/>
    </g>
    <!-- Highlight purple (#9B8DC8) -->
    <g fill="#9B8DC8">
      <rect x="39" y="6" width="9" height="3"/>
      <rect x="36" y="9" width="3" height="3"/>
      <rect x="42" y="9" width="3" height="3"/>
      <rect x="48" y="9" width="6" height="3"/>
      <rect x="33" y="15" width="3" height="3"/>
      <rect x="39" y="15" width="3" height="3"/>
      <rect x="45" y="15" width="3" height="3"/>
      <rect x="51" y="15" width="3" height="3"/>
    </g>
    <!-- White highlights -->
    <g fill="#FFFFFF" opacity="0.5">
      <rect x="39" y="9" width="3" height="3"/>
      <rect x="45" y="9" width="3" height="3"/>
      <rect x="36" y="15" width="3" height="3"/>
      <rect x="42" y="15" width="3" height="3"/>
    </g>
    <!-- Eyes (diamond shapes from pixel blocks) -->
    <g fill="#2D2255">
      <!-- Left eye -->
      <rect x="27" y="30" width="3" height="3"/>
      <rect x="24" y="33" width="3" height="3"/>
      <rect x="27" y="33" width="3" height="3"/>
      <rect x="30" y="33" width="3" height="3"/>
      <rect x="27" y="36" width="3" height="3"/>
      <!-- Right eye -->
      <rect x="48" y="30" width="3" height="3"/>
      <rect x="45" y="33" width="3" height="3"/>
      <rect x="48" y="33" width="3" height="3"/>
      <rect x="51" y="33" width="3" height="3"/>
      <rect x="48" y="36" width="3" height="3"/>
    </g>
    <!-- Eye shine -->
    <g fill="#FFFFFF">
      <rect x="24" y="30" width="3" height="3"/>
      <rect x="45" y="30" width="3" height="3"/>
    </g>
    <!-- Smile -->
    <g fill="#3D3270">
      <rect x="36" y="39" width="3" height="3"/>
      <rect x="39" y="42" width="3" height="3"/>
      <rect x="42" y="42" width="3" height="3"/>
      <rect x="45" y="39" width="3" height="3"/>
    </g>
    <!-- Legs -->
    <g fill="#3D3270">
      <rect x="30" y="51" width="6" height="3"/>
      <rect x="30" y="54" width="6" height="3"/>
      <rect x="27" y="57" width="9" height="3"/>
      <rect x="48" y="51" width="6" height="3"/>
      <rect x="48" y="54" width="6" height="3"/>
      <rect x="48" y="57" width="9" height="3"/>
    </g>
    <g fill="#5B4B8A">
      <rect x="33" y="51" width="3" height="3"/>
      <rect x="51" y="51" width="3" height="3"/>
    </g>
    <!-- Shadow under feet -->
    <g fill="#9B8DC8" opacity="0.25">
      <rect x="24" y="60" width="18" height="3"/>
      <rect x="45" y="60" width="18" height="3"/>
    </g>
  </g>
  <!-- Animated sparkle -->
  <g class="sparkle">
    <g fill="#00E5FF">
      <rect x="81" y="6" width="3" height="3"/>
      <rect x="78" y="9" width="3" height="3"/>
      <rect x="81" y="9" width="3" height="3"/>
      <rect x="84" y="9" width="3" height="3"/>
      <rect x="81" y="12" width="3" height="3"/>
    </g>
    <g fill="#4DFFFF">
      <rect x="81" y="3" width="3" height="3"/>
      <rect x="75" y="9" width="3" height="3"/>
      <rect x="87" y="9" width="3" height="3"/>
      <rect x="81" y="15" width="3" height="3"/>
    </g>
  </g>
</svg>